<svg id="Layer_1" data-name="Layer 1" xmlns="http://www.w3.org/2000/svg" xmlns:xlink="http://www.w3.org/1999/xlink" viewBox="0 0 1080 1080"><defs><style>.cls-1{fill:url(#linear-gradient);}.cls-2{fill:#29abe2;}.cls-3{fill:#f2f2f2;}</style><linearGradient id="linear-gradient" x1="536.71" y1="933.49" x2="536.71" y2="139.92" gradientUnits="userSpaceOnUse"><stop offset="0" stop-color="#1a1a1a"/><stop offset="1" stop-color="#333"/></linearGradient></defs><title>mpp</title><rect class="cls-1" x="139.93" y="139.92" width="793.56" height="793.56" rx="396.78" ry="396.78"/><rect class="cls-2" x="742.89" y="76.15" width="47.76" height="627.66" rx="23.76" ry="23.76" transform="translate(376.8 1156.75) rotate(-90)"/><rect class="cls-2" x="219.84" y="366.91" width="47.75" height="330.9" rx="23.87" ry="23.87"/><path class="cls-2" d="M97.55,418.54l.24-.14a23.61,23.61,0,0,1,32.42,8.77L264.13,661.46a24.11,24.11,0,0,1-8.69,32.75l-.24.14a23.6,23.6,0,0,1-32.42-8.78L88.86,451.29A24.11,24.11,0,0,1,97.55,418.54Z"/><rect class="cls-2" x="42.54" y="373.6" width="48.23" height="131.3" rx="23.99" ry="23.99" transform="translate(-372.6 505.9) rotate(-90)"/><path class="cls-2" d="M325.87,508.05l33.76,34.1L492.9,407.54a24.29,24.29,0,0,0,0-34.1h0a23.71,23.71,0,0,0-33.77,0Z"/><polygon class="cls-2" points="393.72 508.05 359.96 542.15 228.02 408.88 261.79 374.78 393.72 508.05"/><rect class="cls-2" x="481" y="411" width="26" height="7"/><rect class="cls-3" x="470.85" y="414.14" width="47.75" height="282.67" rx="23.87" ry="23.87"/><path class="cls-3" d="M549.05,414.14H493.87a6.48,6.48,0,0,0-6.44,6.51V605.23a6.48,6.48,0,0,0,6.44,6.51h55.18c51.67,0,93.56-42.31,93.56-94.51v-8.59C642.61,456.45,600.72,414.14,549.05,414.14Zm45.56,98.8c0,27.93-22.41,50.57-50.06,50.57H525A6.47,6.47,0,0,1,518.6,557V468.88a6.47,6.47,0,0,1,6.44-6.51h19.51c27.65,0,50.06,22.64,50.06,50.57Z"/><rect class="cls-3" x="690.36" y="414.14" width="47.75" height="282.67" rx="23.87" ry="23.87"/><path class="cls-3" d="M768.55,414.14H713.38a6.48,6.48,0,0,0-6.45,6.51V605.23a6.49,6.49,0,0,0,6.45,6.51h55.17c51.67,0,93.56-42.31,93.56-94.51v-8.59C862.11,456.45,820.22,414.14,768.55,414.14Zm45.57,98.8c0,27.93-22.42,50.57-50.07,50.57h-19.5A6.48,6.48,0,0,1,738.1,557V468.88a6.48,6.48,0,0,1,6.45-6.51h19.5c27.65,0,50.07,22.64,50.07,50.57Z"/></svg>