<svg id="Layer_1" data-name="Layer 1" xmlns="http://www.w3.org/2000/svg" viewBox="0 0 1079.6 331.71"><defs><style>.cls-1{fill:#29abe2;}.cls-2{fill:#f2f2f2;}</style></defs><title>reclogo</title><rect class="cls-1" x="742.89" y="76.15" width="47.76" height="627.66" rx="23.76" ry="23.76" transform="translate(375.8 790.65) rotate(-90)"/><rect class="cls-1" x="218.84" y="0.82" width="47.75" height="330.9" rx="23.87" ry="23.87"/><path class="cls-1" d="M97.55,418.54l.24-.14a23.61,23.61,0,0,1,32.42,8.77L264.13,661.46a24.11,24.11,0,0,1-8.69,32.75l-.24.14a23.6,23.6,0,0,1-32.42-8.78L88.86,451.29A24.11,24.11,0,0,1,97.55,418.54Z" transform="translate(-1 -366.09)"/><rect class="cls-1" x="42.54" y="373.6" width="48.23" height="131.3" rx="23.99" ry="23.99" transform="translate(-373.6 139.81) rotate(-90)"/><path class="cls-1" d="M325.87,508.05l33.76,34.1L492.9,407.54a24.29,24.29,0,0,0,0-34.1h0a23.71,23.71,0,0,0-33.77,0Z" transform="translate(-1 -366.09)"/><polygon class="cls-1" points="392.72 141.95 358.96 176.05 227.02 42.79 260.79 8.69 392.72 141.95"/><rect class="cls-1" x="480" y="44.91" width="26" height="7"/><rect class="cls-2" x="469.85" y="48.04" width="47.75" height="282.67" rx="23.87" ry="23.87"/><path class="cls-2" d="M549.05,414.14H493.87a6.48,6.48,0,0,0-6.44,6.51V605.23a6.48,6.48,0,0,0,6.44,6.51h55.18c51.67,0,93.56-42.31,93.56-94.51v-8.59C642.61,456.45,600.72,414.14,549.05,414.14Zm45.56,98.8c0,27.93-22.41,50.57-50.06,50.57H525A6.47,6.47,0,0,1,518.6,557V468.88a6.47,6.47,0,0,1,6.44-6.51h19.51c27.65,0,50.06,22.64,50.06,50.57Z" transform="translate(-1 -366.09)"/><rect class="cls-2" x="689.36" y="48.04" width="47.75" height="282.67" rx="23.87" ry="23.87"/><path class="cls-2" d="M768.55,414.14H713.38a6.48,6.48,0,0,0-6.45,6.51V605.23a6.49,6.49,0,0,0,6.45,6.51h55.17c51.67,0,93.56-42.31,93.56-94.51v-8.59C862.11,456.45,820.22,414.14,768.55,414.14Zm45.57,98.8c0,27.93-22.42,50.57-50.07,50.57h-19.5A6.48,6.48,0,0,1,738.1,557V468.88a6.48,6.48,0,0,1,6.45-6.51h19.5c27.65,0,50.07,22.64,50.07,50.57Z" transform="translate(-1 -366.09)"/></svg>